M48
; DRILL file {KiCad 9.0.0} date 2025-03-14T16:51:58+0000
; FORMAT={-:-/ absolute / metric / decimal}
; #@! TF.CreationDate,2025-03-14T16:51:58+00:00
; #@! TF.GenerationSoftware,Kicad,Pcbnew,9.0.0
; #@! TF.FileFunction,Plated,1,2,PTH
FMAT,2
METRIC
; #@! TA.AperFunction,Plated,PTH,ViaDrill
T1C1.000
; #@! TA.AperFunction,Plated,PTH,ComponentDrill
T2C1.000
; #@! TA.AperFunction,Plated,PTH,ComponentDrill
T3C1.500
%
G90
G05
T1
X84.5Y-87.5
X86.5Y-59.0
X88.5Y-87.5
X96.5Y-56.6
X98.5Y-100.5
X108.0Y-101.0
X116.5Y-90.0
X119.0Y-87.5
X124.0Y-78.0
X127.5Y-68.5
X127.5Y-100.5
X129.5Y-71.0
X132.0Y-80.5
X134.0Y-83.0
X134.5Y-57.0
X138.0Y-66.5
X152.0Y-94.5
X166.5Y-49.0
X168.5Y-46.5
X177.34Y-75.5
T2
X83.52Y-93.46
X83.52Y-96.0
X86.06Y-93.46
X86.06Y-96.0
X87.5Y-64.0
X88.6Y-93.46
X88.6Y-96.0
X91.14Y-93.46
X91.14Y-96.0
X92.5Y-64.0
X93.68Y-96.0
X93.68Y-93.46
X96.22Y-93.46
X96.22Y-96.0
X98.42Y-71.0
X98.42Y-74.5
X98.42Y-78.0
X98.46Y-67.0
X98.76Y-93.46
X98.76Y-96.0
X101.0Y-67.0
X101.3Y-93.46
X101.3Y-96.0
X103.5Y-52.5
X103.84Y-96.0
X103.84Y-93.46
X106.38Y-93.46
X106.38Y-96.0
X108.5Y-52.5
X108.58Y-71.0
X108.58Y-74.5
X108.58Y-78.0
X108.92Y-93.46
X108.92Y-96.0
X111.46Y-93.46
X111.46Y-96.0
X114.0Y-93.46
X114.0Y-96.0
X116.54Y-93.46
X116.54Y-96.0
X119.08Y-93.46
X119.08Y-96.0
X121.62Y-93.46
X121.62Y-96.0
X124.16Y-93.46
X124.16Y-96.0
X126.7Y-96.0
X126.7Y-93.46
X129.24Y-93.46
X129.24Y-96.0
X129.403Y-52.5
X131.78Y-93.46
X131.78Y-96.0
X134.403Y-52.5
X141.5Y-51.8
X141.5Y-54.34
X141.5Y-56.88
X141.5Y-59.42
X141.5Y-61.96
X141.5Y-64.5
X141.5Y-75.2
X141.5Y-77.74
X141.5Y-80.28
X141.5Y-82.82
X149.14Y-50.76
X149.14Y-53.3
X149.14Y-55.84
X149.14Y-58.38
X149.14Y-60.92
X149.14Y-63.46
X149.14Y-66.0
X149.14Y-68.54
X149.14Y-71.08
X149.14Y-73.62
X149.14Y-76.16
X149.14Y-78.7
X149.14Y-81.24
X149.14Y-83.78
X149.14Y-86.32
X149.14Y-88.86
X157.25Y-106.0
X157.25Y-111.0
X171.75Y-106.0
X171.75Y-108.5
X171.75Y-111.0
X172.0Y-50.76
X172.0Y-53.3
X172.0Y-55.84
X172.0Y-58.38
X172.0Y-60.92
X172.0Y-63.46
X172.0Y-66.0
X172.0Y-68.54
X172.0Y-71.08
X172.0Y-73.62
X172.0Y-76.16
X172.0Y-78.7
X172.0Y-81.24
X172.0Y-83.78
X172.0Y-86.32
X172.0Y-88.86
X177.34Y-52.5
X177.34Y-57.0
X177.34Y-61.5
X180.75Y-106.0
X180.75Y-111.0
X187.5Y-52.5
X187.5Y-57.0
X187.5Y-61.5
X187.5Y-79.96
X187.5Y-82.5
X187.5Y-85.04
X193.69Y-54.49
X193.69Y-57.03
X193.69Y-59.57
X193.69Y-62.11
X193.69Y-64.65
X193.69Y-67.19
X193.69Y-69.73
X193.69Y-72.27
X193.69Y-74.81
X193.69Y-77.35
X193.69Y-79.89
X193.69Y-82.43
X193.69Y-84.97
X193.69Y-87.51
X195.25Y-106.0
X195.25Y-108.5
X195.25Y-111.0
X197.5Y-91.0
X201.31Y-54.49
X201.31Y-57.03
X201.31Y-59.57
X201.31Y-62.11
X201.31Y-64.65
X201.31Y-67.19
X201.31Y-69.73
X201.31Y-72.27
X201.31Y-74.81
X201.31Y-77.35
X201.31Y-79.89
X201.31Y-82.43
X201.31Y-84.97
X201.31Y-87.51
X202.5Y-91.0
X204.25Y-106.0
X204.25Y-111.0
X208.34Y-55.5
X208.34Y-63.5
X208.34Y-67.5
X208.42Y-59.5
X208.42Y-71.5
X208.42Y-75.5
X218.5Y-55.5
X218.5Y-63.5
X218.5Y-67.5
X218.58Y-59.5
X218.58Y-71.5
X218.58Y-75.5
X218.75Y-106.0
X218.75Y-108.5
X218.75Y-111.0
T3
X86.5Y-52.5
X91.5Y-47.5
X96.5Y-52.5
X113.5Y-52.5
X118.5Y-47.5
X123.5Y-52.5
M30
